<?xml version="1.0" encoding="UTF-8"?>
<svg version="1.1" viewBox="0 0 400 220" xmlns="http://www.w3.org/2000/svg">
 <rect x="30" y="30" width="160" height="160" rx="36" fill="#111"/>
 <path d="m87 76.14c0-1.74-0.94-3.04-2.4-3.52 1.02-0.58 1.64-1.64 1.64-3.02 0-2.2-1.5-3.6-3.74-3.6h-3.84v14h4.34c2.38 0 4-1.52 4-3.86zm-6.76-8.82h2.16c1.4 0 2.32 0.96 2.32 2.4s-0.92 2.38-2.32 2.38h-2.16zm0 6.12h2.72c1.5 0 2.52 1.04 2.52 2.6 0 1.58-1.02 2.64-2.52 2.64h-2.72zm18.44 2.52 1.66 4.04h1.76l-6.06-14h-1.46l-6.06 14h1.76l1.7-4.04zm-3.36-8.02 2.8 6.66h-5.6zm16.36-0.66v-1.28h-6.98v14h1.52v-12.72zm15.88 5.72c0-4.26-2.82-7.16-6.98-7.16-4.14 0-6.96 2.9-6.96 7.16 0 4.24 2.82 7.16 6.96 7.16 4.16 0 6.98-2.92 6.98-7.16zm-12.38 0c0-3.44 2.2-5.78 5.4-5.78 3.22 0 5.42 2.34 5.42 5.78 0 3.42-2.2 5.78-5.42 5.78-3.2 0-5.4-2.36-5.4-5.78zm24.64 0.58v6.42h1.52v-14h-1.52v6.3h-7.74v-6.3h-1.52v14h1.52v-6.42z" fill="#a8a8a8" aria-label="ВАГОН"/>
 <path d="m126.45 145.16c0-5.32-2.24-9.1-6.02-11.55 2.87-2.1 4.62-5.25 4.62-9.52 0-8.12-6.09-13.79-15.05-13.79s-15.05 5.67-15.05 13.79h9.45c0-3.36 2.31-5.74 5.6-5.74s5.6 2.38 5.6 5.74-2.31 5.88-5.6 5.88h-3.22v7.56h3.22c4.13 0 7 3.22 7 7.63s-2.87 7.49-7 7.49-7-3.08-7-7.49h-9.45c0 9.17 6.65 15.54 16.45 15.54s16.45-6.37 16.45-15.54z" fill="#34c759" aria-label="3"/>
 <rect x="210" y="30" width="160" height="160" rx="36" fill="#111"/>
 <path d="m275.58 80v3.2h1.42v-4.48h-1.5v-12.72h-8.72v7.46c0 4.38-1.24 5.26-1.24 5.26h-1.24v4.48h1.42v-3.2zm-7.24-6.52v-6.2h5.6v11.44h-6.7s1.1-1.02 1.1-5.24zm19.84 2.66c0-1.74-0.94-3.04-2.4-3.52 1.02-0.58 1.64-1.64 1.64-3.02 0-2.2-1.5-3.6-3.74-3.6h-3.84v14h4.34c2.38 0 4-1.52 4-3.86zm-6.76-8.82h2.16c1.4 0 2.32 0.96 2.32 2.4s-0.92 2.38-2.32 2.38h-2.16zm0 6.12h2.72c1.5 0 2.52 1.04 2.52 2.6 0 1.58-1.02 2.64-2.52 2.64h-2.72zm11.4 5.28v-5.14h5.22v-1.28h-5.22v-5.02h5.88v-1.28h-7.4v14h7.5v-1.28zm13.1-4.9c2.42 0 4.06-1.52 4.06-3.9s-1.64-3.92-4.06-3.92h-3.8v14h1.58v-6.18zm-2.22-6.5h2.22c1.5 0 2.5 1.04 2.5 2.6 0 1.54-1 2.58-2.5 2.58h-2.22zm9.28-1.32v14h1.52v-14z" fill="#a8a8a8" aria-label="ДВЕРІ"/>
 <path d="m286.54 152.3c17.08-17.08 19.39-22.61 19.39-28 0-9.17-6.79-14-15.68-14-10.29 0-16.52 6.51-16.52 16.1h9.45c0-4.62 2.38-7.98 7.14-7.98 3.22 0 6.16 1.54 6.16 6.44 0 2.87-0.98 6.23-22.54 27.79v7.35h31.99v-7.7z" fill="#34c759" aria-label="2"/>
</svg>
