<svg xmlns="http://www.w3.org/2000/svg" width="45.354" height="22.677" viewBox="0 0 10 5"><defs><path id="f" d="M396.85 578.268h37.795V593.6H396.85z"/><path id="a" d="M396.85 578.268h37.795V593.6H396.85z"/><path id="e" d="M396.85 578.268h92.612v21.663H396.85z"/><path id="d" d="M396.85 578.268h37.795V593.6H396.85z"/></defs><path d="m150.86 89.902 58.603 26" style="fill:#000;fill-opacity:1;stroke-width:.590915" transform="translate(-130 -165)"/><path d="m153.162 130.905 12 4.69M156.162 131.905l8.43 6" style="fill:#000;fill-opacity:1;stroke-width:.264583" transform="translate(-130 -165)"/><path d="M219.998-31.632h5v5h-5z" style="fill:#2385c6;fill-opacity:1;stroke-width:.0505851" transform="translate(-130 -165)"/><g style="fill:#fff"><g style="fill:#fff"><path d="M72.752 114.963h10v10h-10z" style="fill:#fff;fill-opacity:1;stroke-width:.10117" transform="matrix(.33427 0 0 .5 -21.004 -57.482)"/><path d="M62.836 114.963h10v10h-10zM82.752 114.963h10v10h-10z" style="fill:#fff;fill-opacity:1;stroke-width:.10117" transform="matrix(.33427 0 0 .5 -21.004 -57.482)"/></g><text xml:space="preserve" x="26.25" style="font-size:13.8889px;text-align:center;letter-spacing:0;writing-mode:lr-tb;direction:ltr;white-space:pre;shape-inside:url(#e);display:inline;fill:#fff;fill-opacity:1" transform="translate(-112.356 -152.567)scale(.26458)"><tspan x="426.691" y="590.905"><tspan style="font-weight:500;font-family:&quot;Proba Nav2&quot;;-inkscape-font-specification:&quot;Proba Nav2 Medium&quot;;fill:#1a1a1a">ПлУГ</tspan></tspan></text></g><g style="fill:#33b55f;fill-opacity:1"><path d="M144.141 82.952h14.995v2.314h-14.995z" style="fill:#33b55f;fill-opacity:1;stroke-width:.0595893" transform="matrix(.33533 0 0 2.16109 -44.044 -368.665)"/></g><g style="fill:#e53027;fill-opacity:1"><path d="M25.38 77.668h14.995v2.314H25.38z" style="fill:#e53027;fill-opacity:1;stroke-width:.0595893" transform="matrix(.33345 0 0 2.16109 -.286 -376.98)"/></g><rect width="2.526" height="2.526" x="-11.902" y="-187.895" fill="none" ry=".293" style="fill:#fff;fill-opacity:0;stroke:#fff;stroke-width:2.4739;stroke-dasharray:none"/><rect width="2.526" height="2.526" x="26.019" y="-182.754" fill="none" ry=".293" style="fill:#fff;fill-opacity:0;stroke:#fff;stroke-width:2.4739;stroke-dasharray:none"/><rect width="7.225" height="2.261" x="198.263" y="73.869" fill="none" ry=".263" style="fill:#fff;fill-opacity:0;stroke:#fff;stroke-width:2.73856;stroke-dasharray:none" transform="rotate(-88.599)"/><rect width="2.526" height="2.526" x="-26.265" y="-184.132" fill="none" ry=".293" style="fill:#fff;fill-opacity:0;stroke:#fff;stroke-width:2.4739;stroke-dasharray:none"/><g style="fill:#33b55f;fill-opacity:1"><path d="M25.38 77.668h14.995v2.314H25.38z" style="fill:#33b55f;fill-opacity:1;stroke-width:.0595893" transform="matrix(.2848 0 0 2.16109 -45.688 -362.247)"/></g><g style="fill:#33b55f;fill-opacity:1"><path d="M144.141 82.952h14.995v2.314h-14.995z" style="fill:#33b55f;fill-opacity:1;stroke-width:.0595893" transform="matrix(.33345 0 0 2.16109 61.934 -373.399)"/></g><g style="fill:#2385c6;fill-opacity:1"><path d="M25.38 77.668h14.995v2.314H25.38z" style="fill:#2385c6;fill-opacity:1;stroke-width:.0595893" transform="matrix(1.99016 0 0 2.16109 47.482 -354.603)"/></g><path d="M25.38 77.668h14.995v2.314H25.38z" style="fill:#fff;fill-opacity:1;stroke-width:.0595893" transform="matrix(.67815 0 0 1.87217 115.004 -341.706)"/><g style="fill:#e53027;fill-opacity:1"><path d="M72.752 114.963h10v10h-10z" style="fill:#2385c6;fill-opacity:1;stroke-width:.10117" transform="matrix(1.49742 0 0 1 -73.15 -312.31)"/><path d="M62.836 114.963h10v10h-10zM82.752 114.963h10v10h-10z" style="fill:#2385c6;fill-opacity:1;stroke-width:.10117" transform="matrix(1.49742 0 0 1 -73.15 -312.31)"/></g><g style="fill:#fff;fill-opacity:1"><path d="M72.752 114.963h10v10h-10z" style="fill:#fff;fill-opacity:1;stroke-width:.10117" transform="matrix(1 0 0 .5 2.162 -241.613)"/><path d="M62.836 114.963h10v10h-10zM82.752 114.963h10v10h-10z" style="fill:#fff;fill-opacity:1;stroke-width:.10117" transform="matrix(1 0 0 .5 2.162 -241.613)"/></g><path d="M10.677-217.909h5v5h-5z" style="fill:#2385c6;fill-opacity:1;stroke-width:.0505851"/></svg>